<svg width="100" height="100" viewBox="0 0 100 100" fill="none" xmlns="http://www.w3.org/2000/svg">
<g clip-path="url(#clip0_386_1243)">
<path d="M52.7778 83.3334H11.1111C9.63767 83.3334 8.22459 82.748 7.18273 81.7062C6.14086 80.6643 5.55554 79.2512 5.55554 77.7778V22.2222C5.55554 20.7488 6.14086 19.3357 7.18273 18.2939C8.22459 17.252 9.63767 16.6667 11.1111 16.6667H88.8889C90.3623 16.6667 91.7754 17.252 92.8172 18.2939C93.8591 19.3357 94.4444 20.7488 94.4444 22.2222V51.0278C90.7438 46.3146 85.3608 43.2186 79.4259 42.3901C73.491 41.5617 67.466 43.0651 62.6161 46.5848C57.7663 50.1045 54.4689 55.3665 53.4165 61.2658C52.3641 67.1651 53.6385 73.2427 56.9722 78.2222L54.3889 81.3889L52.7778 83.3334ZM19.4444 33.3334V37.7778H66.6667V33.3334H19.4444ZM19.4444 48.8889H50V44.4445H19.4444V48.8889ZM19.4444 68.3334H47.2222V63.8889H19.4444V68.3334Z" fill="black"/>
<path d="M93.9722 65.5278C93.9796 62.5989 93.2599 59.714 91.8776 57.1318C90.4953 54.5496 88.4936 52.351 86.0521 50.7331C83.6106 49.1152 80.8057 48.1286 77.8889 47.862C74.9722 47.5953 72.0349 48.0568 69.3405 49.2051C66.6461 50.3534 64.2789 52.1526 62.4512 54.4413C60.6235 56.73 59.3925 59.4365 58.8687 62.3182C58.3448 65.1999 58.5445 68.1665 59.4498 70.952C60.3551 73.7375 61.9376 76.2547 64.0555 78.2778L58.6667 84.8611L61.1667 94.8889L71.3333 82.5C74.5515 83.4516 77.9763 83.4516 81.1944 82.5L91.3611 94.8889L93.8611 84.8611L88.4722 78.2778C90.2052 76.6362 91.5864 74.6595 92.5319 72.4677C93.4773 70.2759 93.9674 67.9148 93.9722 65.5278V65.5278ZM64.1389 65.5278C64.1058 63.1201 64.7895 60.757 66.1031 58.739C67.4167 56.7209 69.3008 55.1392 71.5158 54.1948C73.7307 53.2504 76.1765 52.9861 78.5421 53.4355C80.9077 53.8849 83.0862 55.0277 84.8006 56.7185C86.5149 58.4093 87.6877 60.5718 88.1698 62.931C88.6518 65.2901 88.4214 67.7393 87.5077 69.9672C86.594 72.195 85.0385 74.1007 83.0388 75.4421C81.0391 76.7834 78.6857 77.4998 76.2778 77.5C73.0874 77.5075 70.0236 76.2529 67.7547 74.0101C65.4858 71.7672 64.196 68.718 64.1667 65.5278H64.1389Z" fill="black"/>
</g>
<defs>
<clipPath id="clip0_386_1243">
<rect width="100" height="100" fill="white"/>
</clipPath>
</defs>
</svg>
